<svg id="visual" viewBox="0 0 900 600" width="900" height="600" xmlns="http://www.w3.org/2000/svg" xmlns:xlink="http://www.w3.org/1999/xlink" version="1.1"><rect x="0" y="0" width="900" height="600" fill="#0c2231"></rect><defs><linearGradient id="grad1_0" x1="33.3%" y1="0%" x2="100%" y2="100%"><stop offset="20%" stop-color="#0c2231" stop-opacity="1"></stop><stop offset="80%" stop-color="#0c2231" stop-opacity="1"></stop></linearGradient></defs><defs><linearGradient id="grad2_0" x1="0%" y1="0%" x2="66.7%" y2="100%"><stop offset="20%" stop-color="#0c2231" stop-opacity="1"></stop><stop offset="80%" stop-color="#0c2231" stop-opacity="1"></stop></linearGradient></defs><g transform="translate(900, 0)"><path d="M0 351.5C-36.1 344.2 -72.2 336.8 -105.4 324.3C-138.6 311.8 -168.9 294.3 -199.8 275.1C-230.8 255.9 -262.5 235 -284.4 206.6C-306.3 178.2 -318.5 142.3 -328.1 106.6C-337.7 70.9 -344.6 35.5 -351.5 0L0 0Z" fill="#081721"></path></g><g transform="translate(0, 600)"><path d="M0 -351.5C35.8 -345 71.6 -338.5 106 -326.2C140.4 -313.9 173.5 -295.9 196.9 -271C220.3 -246.1 233.9 -214.3 258.1 -187.5C282.3 -160.7 317 -139 334.3 -108.6C351.7 -78.2 351.6 -39.1 351.5 0L0 0Z" fill="#081721"></path></g></svg>